<svg width="43" height="42" viewBox="0 0 43 42" fill="none" xmlns="http://www.w3.org/2000/svg">
<path d="M34.7916 42H8.54163C6.45305 42 4.45001 41.1703 2.97316 39.6935C1.49631 38.2166 0.666626 36.2136 0.666626 34.125L0.666626 7.875C0.666626 5.78642 1.49631 3.78338 2.97316 2.30653C4.45001 0.829685 6.45305 0 8.54163 0L34.7916 0C36.8802 0 38.8832 0.829685 40.3601 2.30653C41.8369 3.78338 42.6666 5.78642 42.6666 7.875V34.125C42.6666 36.2136 41.8369 38.2166 40.3601 39.6935C38.8832 41.1703 36.8802 42 34.7916 42Z" fill="#F4F6F8"/>
<path d="M31.7217 12.0973L27.1279 10.5355C26.991 10.4883 26.8422 10.4883 26.7053 10.5355L22.1116 12.0973C21.9817 12.1415 21.8689 12.2253 21.7891 12.3369C21.7093 12.4485 21.6665 12.5823 21.6666 12.7195V16.2356C21.6666 20.5275 26.4559 22.6118 26.6607 22.6997C26.7418 22.7342 26.8291 22.752 26.9173 22.752C27.0055 22.752 27.0927 22.7342 27.1739 22.6997C27.3773 22.6118 32.1666 20.5262 32.1666 16.2343V12.7195C32.1668 12.5823 32.124 12.4485 32.0442 12.3369C31.9644 12.2253 31.8516 12.1415 31.7217 12.0973ZM29.7923 15.4153L27.3865 18.4774C27.3135 18.5701 27.2225 18.6471 27.119 18.7038C27.0155 18.7605 26.9016 18.7956 26.7841 18.8072C26.6667 18.8187 26.5481 18.8063 26.4355 18.7709C26.323 18.7354 26.2188 18.6775 26.1291 18.6008L24.5974 17.2883C24.5102 17.2136 24.4386 17.1224 24.3866 17.02C24.3346 16.9176 24.3033 16.8059 24.2945 16.6914C24.2856 16.5769 24.2994 16.4618 24.3351 16.3526C24.3708 16.2435 24.4276 16.1424 24.5023 16.0552C24.577 15.968 24.6682 15.8963 24.7706 15.8443C24.873 15.7924 24.9846 15.7611 25.0991 15.7522C25.2136 15.7434 25.3287 15.7572 25.4379 15.7928C25.5471 15.8285 25.6482 15.8853 25.7354 15.96L26.5741 16.678L28.4168 14.3338C28.5602 14.1514 28.7702 14.0335 29.0006 14.0059C29.231 13.9783 29.4629 14.0434 29.6453 14.1868C29.8277 14.3303 29.9457 14.5403 29.9732 14.7706C30.0008 15.001 29.9357 15.2329 29.7923 15.4153Z" fill="#95AAF1"/>
<path d="M32.1666 22.9687C32.1666 23.8087 31.4749 24.5004 30.6349 24.5004H29.5324C29.5223 25.4181 29.2764 26.3178 28.8184 27.1131C28.3603 27.9084 27.7054 28.5725 26.9166 29.0417V29.9696C26.9166 30.8083 26.2249 31.5 25.3849 31.5H24.5095C24.1041 31.4976 23.7161 31.3354 23.4296 31.0486C23.1431 30.7618 22.9812 30.3737 22.9791 29.9683V29.7491H19.4787V29.9683C19.4787 30.8083 18.787 31.5 17.947 31.5H17.0729C16.2329 31.5 15.5412 30.8083 15.5412 29.9683V28.7516C14.348 27.9615 13.4882 26.7591 13.1262 25.3745H12.6983C11.8583 25.3745 11.1666 24.6842 11.1666 23.8442V22.5317C11.1666 21.6917 11.8583 21 12.6983 21H13.915C14.125 20.685 14.3704 20.387 14.65 20.1075C14.9296 19.8279 15.2275 19.5825 15.5425 19.3725V16.4062C15.5425 16.2133 15.6304 16.0295 15.7696 15.9075C15.8421 15.8478 15.9262 15.8039 16.0165 15.7784C16.1069 15.7528 16.2016 15.7463 16.2946 15.7592C18.6308 16.1096 19.5141 17.2817 19.8029 18.375H20.2399C21.202 21.5079 24.1158 23.5292 25.9795 24.3075C26.2774 24.4387 26.6003 24.5004 26.9153 24.5004C27.2303 24.5004 27.5545 24.4387 27.8511 24.3075C28.4457 24.062 29.1374 23.6867 29.8461 23.1879H30.6336C30.7557 23.1879 30.8528 23.0921 30.8528 22.9687C30.8528 22.8454 30.757 22.7495 30.6336 22.7495C30.577 22.7499 30.5207 22.741 30.4669 22.7233C30.8344 22.4345 31.2019 22.1104 31.5432 21.7429C31.9212 22.0237 32.1666 22.47 32.1666 22.9687Z" fill="#5B7DDE"/>
</svg>
