<svg width="43" height="42" viewBox="0 0 43 42" fill="none" xmlns="http://www.w3.org/2000/svg">
<path d="M34.4584 42H8.20837C6.11979 42 4.11676 41.1703 2.63991 39.6935C1.16306 38.2166 0.333374 36.2136 0.333374 34.125L0.333374 7.875C0.333374 5.78642 1.16306 3.78338 2.63991 2.30653C4.11676 0.829685 6.11979 0 8.20837 0L34.4584 0C36.547 0 38.55 0.829685 40.0268 2.30653C41.5037 3.78338 42.3334 5.78642 42.3334 7.875V34.125C42.3334 36.2136 41.5037 38.2166 40.0268 39.6935C38.55 41.1703 36.547 42 34.4584 42Z" fill="#F4F6F8"/>
<path d="M18.3684 21.6563L11.6917 21.6655L12.2784 15.3484C12.3332 14.7511 12.6099 14.1961 13.0537 13.7928C13.4976 13.3895 14.0766 13.1671 14.6763 13.1696H15.4638C15.2971 13.7209 15.2105 14.3155 15.2105 14.9284C15.2092 17.6492 17.0113 20.16 18.3684 21.6563ZM22.55 23.4058L16.9246 31.5H13.415C12.7325 31.5 12.0855 31.2113 11.63 30.7125C11.1746 30.2138 10.9567 29.5405 11.0171 28.8658L11.525 23.415L20.345 23.4058H22.55ZM24.3088 21.6563C25.6567 20.16 27.4588 17.6492 27.4588 14.9271C27.4588 14.3141 27.3708 13.7196 27.2055 13.1683H27.993C29.2438 13.1683 30.2675 14.1041 30.3909 15.3471L30.9776 21.6471L24.3088 21.6563ZM31.1403 23.3953L24.6789 23.4045L19.0561 31.5H29.2556C29.5907 31.5002 29.9221 31.4304 30.2286 31.2951C30.5352 31.1597 30.8101 30.9619 31.0357 30.7141C31.2613 30.4664 31.4327 30.1742 31.5389 29.8564C31.6451 29.5386 31.6836 29.2021 31.6522 28.8685L31.1403 23.3953Z" fill="#5B7DDE"/>
<path d="M21.3346 10.5C18.9223 10.5 16.9601 12.4871 16.9601 14.9297C16.9601 18.3002 20.7466 21.5788 20.9081 21.7179C21.0266 21.8204 21.178 21.8767 21.3346 21.8767C21.4913 21.8767 21.6427 21.8204 21.7612 21.7179C21.9226 21.5801 25.7092 18.3015 25.7092 14.9297C25.7092 12.4871 23.7457 10.5 21.3346 10.5ZM21.3346 16.6254C20.8848 16.6041 20.4605 16.4104 20.1497 16.0845C19.8389 15.7586 19.6655 15.3256 19.6655 14.8752C19.6655 14.4249 19.8389 13.9918 20.1497 13.6659C20.4605 13.3401 20.8848 13.1463 21.3346 13.125C21.7905 13.1375 22.2236 13.3274 22.5416 13.6542C22.8596 13.9811 23.0376 14.4192 23.0376 14.8752C23.0376 15.3313 22.8596 15.7693 22.5416 16.0962C22.2236 16.4231 21.7905 16.613 21.3346 16.6254Z" fill="#95AAF1"/>
</svg>
