<svg width="42" height="42" viewBox="0 0 42 42" fill="none" xmlns="http://www.w3.org/2000/svg">
<path d="M34.125 42H7.875C5.78642 42 3.78338 41.1703 2.30653 39.6935C0.829685 38.2166 0 36.2136 0 34.125L0 7.875C0 5.78642 0.829685 3.78338 2.30653 2.30653C3.78338 0.829685 5.78642 0 7.875 0L34.125 0C36.2136 0 38.2166 0.829685 39.6935 2.30653C41.1703 3.78338 42 5.78642 42 7.875V34.125C42 36.2136 41.1703 38.2166 39.6935 39.6935C38.2166 41.1703 36.2136 42 34.125 42Z" fill="#F4F6F8"/>
<path d="M31.0551 12.0973L26.4613 10.5355C26.3244 10.4883 26.1756 10.4883 26.0387 10.5355L21.4449 12.0973C21.3151 12.1415 21.2023 12.2253 21.1225 12.3369C21.0427 12.4485 20.9998 12.5823 21 12.7195V16.2356C21 20.5275 25.7893 22.6118 25.9941 22.6997C26.0748 22.7348 26.162 22.7528 26.25 22.7528C26.3381 22.7528 26.4252 22.7348 26.5059 22.6997C26.7107 22.6118 31.5 20.5262 31.5 16.2343V12.7195C31.5002 12.5823 31.4573 12.4485 31.3775 12.3369C31.2977 12.2253 31.1849 12.1415 31.0551 12.0973ZM29.1257 15.4153L26.7199 18.4774C26.647 18.5702 26.5561 18.6473 26.4526 18.7041C26.3491 18.7609 26.2352 18.7962 26.1178 18.8078C26.0003 18.8195 25.8817 18.8073 25.7691 18.7719C25.6565 18.7366 25.5522 18.6788 25.4625 18.6021L23.9308 17.2896C23.7635 17.136 23.6623 16.9235 23.6488 16.6968C23.6352 16.4701 23.7103 16.247 23.8582 16.0746C24.006 15.9022 24.2151 15.794 24.4412 15.7729C24.6673 15.7517 24.8928 15.8193 25.0701 15.9613L25.9088 16.6793L27.7515 14.3351C27.8215 14.2424 27.9093 14.1645 28.0098 14.1061C28.1103 14.0476 28.2215 14.0098 28.3367 13.9949C28.452 13.9799 28.5691 13.9881 28.6812 14.0189C28.7932 14.0498 28.898 14.1027 28.9894 14.1745C29.0808 14.2463 29.1569 14.3357 29.2134 14.4373C29.2698 14.5389 29.3054 14.6508 29.3181 14.7663C29.3308 14.8818 29.3203 14.9988 29.2873 15.1102C29.2542 15.2216 29.1993 15.3254 29.1257 15.4153Z" fill="#95AAF1"/>
<path d="M10.9292 21.0013C10.8145 21.0037 10.7054 21.051 10.6251 21.1329C10.5449 21.2149 10.5 21.325 10.5 21.4397V29.5312C10.5 29.652 10.5984 29.7504 10.7192 29.7504H12.7943C12.9898 29.7504 13.1618 29.6205 13.2156 29.4328L15.1515 22.6091C15.2119 22.3966 15.1896 22.169 15.089 21.9723C14.9885 21.7755 14.8171 21.6241 14.6094 21.5486C13.8154 21.2586 12.6 20.9737 10.9292 21.0013ZM29.7504 25.8129C28.0009 25.8129 24.5004 28.0284 22.7496 28.0284C21 28.0284 19.0312 26.6884 19.0312 26.6884C19.0312 26.6884 21.3885 27.1254 22.7496 27.1254C24.1119 27.1254 24.4991 26.6608 24.4991 26.0321C24.4991 24.5004 21.8977 24.2629 20.5826 24.0634C19.2911 23.3441 18.6204 22.7758 16.4811 22.5947C16.4679 22.7194 16.4482 22.8427 16.4141 22.9674L14.6567 29.1624C16.6477 30.0681 20.076 31.5026 21.8754 31.5026C24.5004 31.5026 31.5013 28.0022 31.5013 27.1281C31.5 26.25 30.6259 25.8129 29.7504 25.8129Z" fill="#5B7DDE"/>
</svg>
