<svg width="24" height="24" viewBox="0 0 24 24" fill="none" xmlns="http://www.w3.org/2000/svg">
<g clip-path="url(#clip0_1037_34)">
<path d="M15.9241 17.5045L17.8929 8.22321C17.9732 7.83036 17.9263 7.54911 17.7522 7.37946C17.5781 7.20982 17.3482 7.17857 17.0625 7.28571L5.49107 11.7455C5.23214 11.8438 5.0558 11.9554 4.96205 12.0804C4.8683 12.2054 4.85714 12.3237 4.92857 12.4353C5 12.5469 5.14286 12.6339 5.35714 12.6964L8.31696 13.6205L15.1875 9.29464C15.375 9.16964 15.5179 9.14286 15.6161 9.21429C15.6786 9.25893 15.6607 9.32589 15.5625 9.41518L10.0045 14.4375L9.79018 17.4911C9.99554 17.4911 10.1964 17.3929 10.3929 17.1964L11.8393 15.8036L14.8393 18.0134C15.4107 18.3348 15.7723 18.1652 15.9241 17.5045ZM24 12C24 13.625 23.683 15.1786 23.0491 16.6607C22.4152 18.1429 21.5625 19.4196 20.4911 20.4911C19.4196 21.5625 18.1429 22.4152 16.6607 23.0491C15.1786 23.683 13.625 24 12 24C10.375 24 8.82143 23.683 7.33929 23.0491C5.85714 22.4152 4.58036 21.5625 3.50893 20.4911C2.4375 19.4196 1.58482 18.1429 0.950893 16.6607C0.316964 15.1786 0 13.625 0 12C0 10.375 0.316964 8.82143 0.950893 7.33929C1.58482 5.85714 2.4375 4.58036 3.50893 3.50893C4.58036 2.4375 5.85714 1.58482 7.33929 0.950893C8.82143 0.316964 10.375 0 12 0C13.625 0 15.1786 0.316964 16.6607 0.950893C18.1429 1.58482 19.4196 2.4375 20.4911 3.50893C21.5625 4.58036 22.4152 5.85714 23.0491 7.33929C23.683 8.82143 24 10.375 24 12Z" fill="#229ED9"/>
</g>
<defs>
<clipPath id="clip0_1037_34">
<rect width="24" height="24" fill="white"/>
</clipPath>
</defs>
</svg>
