<svg width="12" height="16" viewBox="0 0 12 16" fill="none" xmlns="http://www.w3.org/2000/svg">
<path d="M6 0.84082C4.50868 0.842512 3.07892 1.43569 2.02439 2.49021C0.969867 3.54474 0.376692 4.9745 0.375 6.46582C0.375 11.279 5.48864 14.9142 5.70661 15.0663C5.79259 15.1265 5.89502 15.1589 6 15.1589C6.10498 15.1589 6.20741 15.1265 6.29339 15.0663C6.51136 14.9142 11.625 11.279 11.625 6.46582C11.6233 4.9745 11.0301 3.54474 9.97561 2.49021C8.92108 1.43569 7.49132 0.842512 6 0.84082ZM6 4.42037C6.40455 4.42037 6.80002 4.54033 7.13639 4.76509C7.47277 4.98984 7.73494 5.3093 7.88975 5.68306C8.04457 6.05682 8.08508 6.46809 8.00615 6.86487C7.92723 7.26165 7.73242 7.62611 7.44635 7.91218C7.16029 8.19824 6.79583 8.39305 6.39905 8.47197C6.00227 8.5509 5.591 8.51039 5.21724 8.35557C4.84348 8.20076 4.52402 7.93859 4.29927 7.60221C4.07451 7.26584 3.95455 6.87037 3.95455 6.46582C3.95455 5.92333 4.17005 5.40306 4.55365 5.01947C4.93724 4.63587 5.45751 4.42037 6 4.42037Z" fill="white"/>
</svg>
