<svg width="24" height="24" viewBox="0 0 24 24" fill="none" xmlns="http://www.w3.org/2000/svg">
<path d="M12.001 1.00098C18.0757 1.00098 23 5.92523 23 12C23 18.0747 18.0757 22.999 12.001 22.999C10.0572 23.0021 8.14765 22.4877 6.46848 21.5086L1.00637 22.999L2.49343 17.5347C1.51352 15.855 0.998721 13.9446 1.00197 12C1.00197 5.92523 5.92623 1.00098 12.001 1.00098ZM8.25252 6.83045L8.03254 6.83925C7.89012 6.84792 7.75094 6.88534 7.62337 6.94924C7.50406 7.01681 7.39514 7.10127 7.3 7.20002C7.16801 7.32431 7.09322 7.4321 7.01293 7.53659C6.6061 8.06553 6.38705 8.71493 6.39038 9.38222C6.39258 9.92117 6.53337 10.4458 6.75335 10.9364C7.20321 11.9285 7.94344 12.9789 8.92016 13.9523C9.15553 14.1866 9.38651 14.422 9.63509 14.6408C10.8487 15.7094 12.2949 16.4799 13.8587 16.8912L14.4835 16.9869C14.6869 16.9979 14.8904 16.9825 15.095 16.9726C15.4153 16.9561 15.7281 16.8694 16.0112 16.7186C16.1553 16.6444 16.2958 16.5636 16.4325 16.4766C16.4325 16.4766 16.4798 16.4458 16.57 16.3776C16.7185 16.2676 16.8097 16.1895 16.9329 16.0608C17.0242 15.9662 17.1034 15.8551 17.1639 15.7287C17.2497 15.5494 17.3355 15.2073 17.3707 14.9224C17.3971 14.7046 17.3894 14.5859 17.3861 14.5122C17.3817 14.3945 17.2838 14.2724 17.1771 14.2207L16.537 13.9336C16.537 13.9336 15.5801 13.5167 14.9949 13.2506C14.9337 13.2238 14.8681 13.2086 14.8013 13.2055C14.7261 13.1977 14.65 13.2062 14.5783 13.2303C14.5066 13.2544 14.4409 13.2936 14.3856 13.3452C14.3801 13.343 14.3064 13.4057 13.5111 14.3692C13.4655 14.4305 13.4026 14.4769 13.3305 14.5023C13.2585 14.5278 13.1804 14.5312 13.1064 14.5122C13.0347 14.4929 12.9645 14.4687 12.8963 14.4396C12.7599 14.3824 12.7126 14.3604 12.6191 14.3208C11.9879 14.0453 11.4034 13.6731 10.8868 13.2176C10.7482 13.0966 10.6195 12.9646 10.4875 12.837C10.0548 12.4226 9.67768 11.9538 9.36561 11.4423L9.30072 11.3378C9.25411 11.2676 9.21642 11.1919 9.18853 11.1124C9.14674 10.9507 9.25563 10.8209 9.25563 10.8209C9.25563 10.8209 9.5229 10.5283 9.64719 10.3699C9.76818 10.2159 9.87047 10.0664 9.93646 9.95967C10.0663 9.75069 10.1069 9.53621 10.0388 9.37012C9.73078 8.61779 9.41181 7.86876 9.08404 7.12523C9.01915 6.97784 8.82666 6.87225 8.65178 6.85135C8.59239 6.84475 8.53299 6.83815 8.4736 6.83375C8.32589 6.82641 8.17787 6.82788 8.03034 6.83815L8.25142 6.82935L8.25252 6.83045Z" fill="#08B419"/>
</svg>
