<svg width="26" height="29" viewBox="0 0 26 29" fill="none" xmlns="http://www.w3.org/2000/svg">
<path d="M13.1583 28.5H12.9013C12.8958 28.4945 12.8849 28.489 12.8794 28.4835C12.1576 28.325 11.824 27.9093 11.824 27.171V25.1804C11.3154 25.4757 10.8396 25.7492 10.3583 26.0281C10.0576 26.2031 9.74037 26.2906 9.39037 26.1976C8.90365 26.0664 8.60287 25.7492 8.50443 25.2625C8.40053 24.7429 8.62475 24.2671 9.07865 24.0046C9.94818 23.5015 10.8122 22.9984 11.6872 22.5007C11.7802 22.4625 11.8349 22.3695 11.824 22.271C11.8185 20.4226 11.8185 18.5742 11.8185 16.7312V16.5671C11.7693 16.5945 11.7474 16.6 11.731 16.6109C10.1068 17.5515 8.48256 18.4867 6.85834 19.4218C6.78725 19.4546 6.7435 19.5312 6.75443 19.6132C6.7599 20.5921 6.7599 21.5656 6.75443 22.539C6.75443 22.6375 6.7435 22.7359 6.73256 22.8343C6.67787 23.3648 6.15287 23.9226 5.39271 23.846C4.84037 23.7859 4.35365 23.2554 4.35365 22.6593V20.8765L4.28803 20.9148C3.70834 21.2484 3.12865 21.582 2.55443 21.9156C2.2974 22.0742 1.99662 22.1398 1.70131 22.1015C1.23647 22.0304 0.853653 21.6968 0.727872 21.2375C0.60209 20.7945 0.749747 20.2585 1.11068 20.007C1.4935 19.7445 1.90365 19.5257 2.30287 19.2906C2.58178 19.1265 2.86615 18.9625 3.16147 18.7929C2.6474 18.4976 2.14975 18.2132 1.65209 17.9234C1.17084 17.6445 0.919278 17.1304 1.02865 16.6601C1.231 15.7796 2.08959 15.4078 2.88256 15.8617C3.72475 16.3539 4.5724 16.8351 5.41459 17.3273C5.50209 17.3875 5.61693 17.3875 5.70443 17.3273C7.15365 16.4851 8.60287 15.6484 10.0576 14.8117C10.2216 14.7187 10.3802 14.6203 10.5552 14.5164L9.77865 14.0679C8.40053 13.275 7.0224 12.482 5.64975 11.6835C5.52397 11.607 5.44193 11.6125 5.31615 11.6835C4.49584 12.1648 3.67006 12.6406 2.84428 13.1164C2.57631 13.2804 2.25912 13.3351 1.95834 13.275C1.53725 13.1929 1.13803 12.821 1.05053 12.3945C0.946622 11.9132 1.06693 11.4867 1.46068 11.1859C1.73959 10.9726 2.05678 10.8195 2.35756 10.639C2.59818 10.4968 2.83334 10.3601 3.09037 10.2125C3.02475 10.1742 2.981 10.1468 2.93725 10.1195C2.40131 9.80776 1.86537 9.50151 1.32943 9.18433C0.782559 8.86714 0.569278 8.17261 0.848184 7.6312C1.1435 7.05151 1.81068 6.78355 2.39037 7.05151C2.72943 7.20464 3.04662 7.41245 3.36928 7.59839C3.69193 7.78433 4.02006 7.97573 4.36459 8.17261V6.28589C4.36459 5.5312 5.10287 4.96245 5.83021 5.14839C6.39896 5.29058 6.7599 5.76089 6.7599 6.37339V9.44683C6.75443 9.52886 6.79818 9.61089 6.88022 9.6437C8.25287 10.4312 9.62006 11.2187 10.9927 12.0117L11.8185 12.4875C11.824 12.4656 11.8294 12.4492 11.8294 12.4273V6.64136C11.824 6.58667 11.7966 6.54292 11.7529 6.51558C11.4466 6.32964 11.1294 6.15464 10.8177 5.97417C10.2052 5.6187 9.59271 5.27417 8.99662 4.90776C8.58646 4.6562 8.39506 4.10933 8.52084 3.66089C8.74506 2.85151 9.55443 2.50698 10.2927 2.91714C10.588 3.0812 10.8833 3.2562 11.1787 3.42573C11.3865 3.54605 11.5943 3.66089 11.824 3.79214V1.78511C11.824 1.16167 12.174 0.696826 12.7372 0.554639L12.9013 0.516357H13.1583C13.1747 0.527295 13.1912 0.532764 13.2076 0.538232C13.8146 0.642139 14.2138 1.10698 14.2138 1.72495V3.7812C14.2849 3.74292 14.3396 3.71558 14.3888 3.68823C14.8372 3.4312 15.2802 3.1687 15.7287 2.91167C16.0349 2.73667 16.3521 2.67105 16.6966 2.78042C17.1888 2.93355 17.4841 3.27808 17.5443 3.7812C17.6044 4.28433 17.4076 4.69995 16.9537 4.96792C16.0732 5.48198 15.1927 5.99058 14.3122 6.49917C14.2412 6.53198 14.2029 6.60308 14.2083 6.67417V12.2906C14.2083 12.3234 14.2138 12.3617 14.2193 12.4109L14.6787 12.1429C16.1662 11.2843 17.6537 10.4257 19.1466 9.56714C19.2505 9.51792 19.3107 9.41401 19.2943 9.29917C19.2888 8.33667 19.2888 7.37417 19.2943 6.41167C19.2943 6.2148 19.3271 6.01792 19.3927 5.83198C19.5841 5.32886 20.1638 5.03355 20.7052 5.13198C21.2302 5.22495 21.6513 5.68433 21.6677 6.22026C21.6841 6.78355 21.6787 7.35229 21.6787 7.92105V8.10151L21.8318 8.01401C22.3677 7.70776 22.8982 7.40151 23.4286 7.0898C23.6747 6.94214 23.9701 6.89292 24.2544 6.94214C24.7685 7.03511 25.1294 7.41245 25.2279 7.94292C25.3099 8.38042 25.0857 8.87808 24.6701 9.13511C24.331 9.34292 23.981 9.53433 23.6365 9.73667L22.8872 10.1742C22.9201 10.196 22.9365 10.207 22.9474 10.2179C23.4615 10.5132 23.9755 10.8031 24.4787 11.1093C24.8451 11.3226 25.0583 11.7328 25.0201 12.1539C24.9708 13.0781 24.0083 13.5867 23.2044 13.1273C22.3404 12.6296 21.4708 12.1265 20.6068 11.6234C20.5357 11.5687 20.4372 11.5687 20.3662 11.6179C19.0701 12.3726 17.7685 13.1273 16.4669 13.8765L15.3404 14.5273C15.663 14.7132 15.9638 14.8937 16.2646 15.0687C17.6044 15.8453 18.9443 16.6164 20.2896 17.3929C20.3607 17.4476 20.4591 17.4476 20.5302 17.3984C21.4435 16.8679 22.3568 16.3429 23.2755 15.8179C23.549 15.6593 23.8826 15.6265 24.1779 15.7304C24.6865 15.8945 24.9708 16.2609 25.0201 16.7804C25.0638 17.2507 24.8615 17.6226 24.4677 17.8796C24.1943 18.0546 23.9044 18.2078 23.6201 18.3773L22.8162 18.8421C22.8544 18.8695 22.8763 18.8859 22.8982 18.8968L24.6482 19.9031C25.0529 20.1382 25.2771 20.4937 25.2826 20.9585C25.2935 21.8664 24.3091 22.446 23.5052 22.0085C23.1333 21.8062 22.7669 21.582 22.4005 21.3687C22.1654 21.232 21.9302 21.1007 21.6841 20.9585V22.4406C21.6841 22.5554 21.6787 22.6703 21.6677 22.7796C21.6076 23.4085 21.0662 23.8679 20.4318 23.8515C19.8083 23.8351 19.2833 23.2773 19.2888 22.6812C19.2943 21.6859 19.2888 20.6906 19.2888 19.6953C19.2888 19.6296 19.2615 19.5695 19.2122 19.5312C18.9443 19.3671 18.6654 19.2085 18.3919 19.05C17.074 18.2898 15.7615 17.5296 14.4435 16.7695C14.3669 16.7257 14.2958 16.6875 14.2029 16.6382C14.2029 18.5523 14.2029 20.4335 14.2083 22.3203C14.2138 22.375 14.2466 22.4296 14.2958 22.457C14.6841 22.6867 15.0724 22.9109 15.4662 23.1351C15.9912 23.4414 16.5271 23.7367 17.0412 24.0648C17.5333 24.3765 17.6865 25.0164 17.4349 25.5523C17.1943 26.0718 16.5927 26.3617 16.0458 26.1812C15.7396 26.0773 15.4607 25.8968 15.1763 25.7382C14.8537 25.5632 14.5419 25.3718 14.2029 25.1804V27.2968C14.2029 27.6906 14.0497 28.0242 13.7216 28.2484C13.563 28.3632 13.3552 28.4179 13.1583 28.5Z" fill="#5B7DDE"/>
</svg>
