<svg width="16" height="16" viewBox="0 0 16 16" fill="none" xmlns="http://www.w3.org/2000/svg">
<path d="M3 0.5C2.33696 0.5 1.70107 0.763392 1.23223 1.23223C0.763392 1.70107 0.5 2.33696 0.5 3L0.5 5C0.5 10.799 5.201 15.5 11 15.5H13C13.663 15.5 14.2989 15.2366 14.7678 14.7678C15.2366 14.2989 15.5 13.663 15.5 13V11.618C15.5 11.3393 15.4223 11.0661 15.2757 10.829C15.1291 10.592 14.9194 10.4005 14.67 10.276L12.255 9.068C12.0627 8.97188 11.852 8.9182 11.6372 8.91061C11.4224 8.90302 11.2084 8.94169 11.0099 9.024C10.8113 9.10632 10.6327 9.23035 10.4863 9.3877C10.3398 9.54505 10.2289 9.73204 10.161 9.936L9.863 10.829C9.80816 10.9929 9.69543 11.1311 9.54594 11.2178C9.39646 11.3045 9.22048 11.3338 9.051 11.3C7.97742 11.0853 6.99139 10.5576 6.21713 9.78352C5.44287 9.00943 4.91499 8.02353 4.7 6.95C4.66624 6.78052 4.69545 6.60454 4.78216 6.45506C4.86887 6.30557 5.00712 6.19284 5.171 6.138L6.28 5.768C6.63839 5.64832 6.93842 5.3978 7.1201 5.0665C7.30179 4.7352 7.35175 4.34754 7.26 3.981L6.674 1.637C6.59307 1.31252 6.40603 1.02439 6.14259 0.818382C5.87915 0.612377 5.55442 0.500315 5.22 0.5H3Z" fill="#5B7DDE"/>
</svg>
